<svg width="16" height="16" viewBox="0 0 16 16" fill="none" xmlns="http://www.w3.org/2000/svg">
<path d="M12.6667 7.33332H8.66669V3.33332C8.66669 3.15651 8.59645 2.98694 8.47142 2.86192C8.3464 2.73689 8.17683 2.66666 8.00002 2.66666C7.82321 2.66666 7.65364 2.73689 7.52862 2.86192C7.40359 2.98694 7.33335 3.15651 7.33335 3.33332V7.33332H3.33335C3.15654 7.33332 2.98697 7.40356 2.86195 7.52858C2.73693 7.65361 2.66669 7.82318 2.66669 7.99999C2.66669 8.1768 2.73693 8.34637 2.86195 8.47139C2.98697 8.59642 3.15654 8.66666 3.33335 8.66666H7.33335V12.6667C7.33335 12.8435 7.40359 13.013 7.52862 13.1381C7.65364 13.2631 7.82321 13.3333 8.00002 13.3333C8.17683 13.3333 8.3464 13.2631 8.47142 13.1381C8.59645 13.013 8.66669 12.8435 8.66669 12.6667V8.66666H12.6667C12.8435 8.66666 13.0131 8.59642 13.1381 8.47139C13.2631 8.34637 13.3334 8.1768 13.3334 7.99999C13.3334 7.82318 13.2631 7.65361 13.1381 7.52858C13.0131 7.40356 12.8435 7.33332 12.6667 7.33332Z" fill="currentColor"/>
</svg>
