<svg width="20" height="20" viewBox="0 0 20 20" fill="none" xmlns="http://www.w3.org/2000/svg">
    <path d="M9.40834 9.99998L12.3583 7.04998C12.5135 6.89384 12.6007 6.68263 12.6007 6.46248C12.6007 6.24232 12.5135 6.03111 12.3583 5.87498C12.2809 5.79687 12.1887 5.73488 12.0872 5.69257C11.9856 5.65026 11.8767 5.62848 11.7667 5.62848C11.6567 5.62848 11.5477 5.65026 11.4462 5.69257C11.3446 5.73488 11.2525 5.79687 11.175 5.87498L7.64167 9.40831C7.56356 9.48578 7.50157 9.57795 7.45926 9.6795C7.41695 9.78105 7.39517 9.88997 7.39517 9.99998C7.39517 10.11 7.41695 10.2189 7.45926 10.3205C7.50157 10.422 7.56356 10.5142 7.64167 10.5916L11.175 14.1666C11.2529 14.2439 11.3452 14.305 11.4467 14.3465C11.5483 14.3879 11.657 14.4089 11.7667 14.4083C11.8763 14.4089 11.9851 14.3879 12.0866 14.3465C12.1881 14.305 12.2805 14.2439 12.3583 14.1666C12.5135 14.0105 12.6007 13.7993 12.6007 13.5791C12.6007 13.359 12.5135 13.1478 12.3583 12.9916L9.40834 9.99998Z"
          fill="currentColor"/>
</svg>
