<svg width="20" height="20" viewBox="0 0 20 20" fill="none" xmlns="http://www.w3.org/2000/svg">
    <path d="M13.1834 16.6667L17.5 16.6667C17.721 16.6667 17.933 16.5789 18.0893 16.4226C18.2456 16.2663 18.3334 16.0544 18.3334 15.8333C18.3334 15.6123 18.2456 15.4004 18.0893 15.2441C17.933 15.0878 17.721 15 17.5 15L13.1834 15C13.0082 14.5174 12.6887 14.1004 12.2682 13.8057C11.8478 13.511 11.3468 13.3529 10.8334 13.3529C10.3199 13.3529 9.81894 13.511 9.3985 13.8057C8.97805 14.1004 8.65853 14.5174 8.48336 15L2.50003 15C2.27901 15 2.06705 15.0878 1.91077 15.2441C1.75449 15.4004 1.66669 15.6123 1.66669 15.8333C1.66669 16.0544 1.75449 16.2663 1.91077 16.4226C2.06705 16.5789 2.27901 16.6667 2.50003 16.6667L8.48336 16.6667C8.65853 17.1493 8.97805 17.5663 9.3985 17.861C9.81894 18.1557 10.3199 18.3137 10.8334 18.3137C11.3468 18.3137 11.8478 18.1557 12.2682 17.861C12.6887 17.5663 13.0082 17.1493 13.1834 16.6667ZM10 15.8333C10 15.6685 10.0489 15.5074 10.1405 15.3704C10.232 15.2333 10.3622 15.1265 10.5145 15.0634C10.6667 15.0004 10.8343 14.9839 10.9959 15.016C11.1576 15.0482 11.3061 15.1275 11.4226 15.2441C11.5392 15.3606 11.6185 15.5091 11.6507 15.6708C11.6828 15.8324 11.6663 16 11.6033 16.1522C11.5402 16.3045 11.4334 16.4347 11.2963 16.5262C11.1593 16.6178 10.9982 16.6667 10.8334 16.6667C10.6123 16.6667 10.4004 16.5789 10.2441 16.4226C10.0878 16.2663 10 16.0544 10 15.8333ZM8.18336 10.8333L17.5 10.8333C17.721 10.8333 17.933 10.7455 18.0893 10.5893C18.2456 10.433 18.3334 10.221 18.3334 10C18.3334 9.779 18.2456 9.56703 18.0893 9.41075C17.933 9.25447 17.721 9.16668 17.5 9.16668L8.18336 9.16668C8.00819 8.68405 7.68867 8.26706 7.26822 7.97238C6.84777 7.6777 6.34679 7.51961 5.83336 7.51961C5.31993 7.51961 4.81894 7.6777 4.3985 7.97238C3.97805 8.26706 3.65853 8.68405 3.48336 9.16668L2.50003 9.16668C2.27901 9.16668 2.06705 9.25447 1.91077 9.41075C1.75449 9.56703 1.66669 9.77899 1.66669 10C1.66669 10.221 1.75449 10.433 1.91077 10.5893C2.06705 10.7455 2.27901 10.8333 2.50003 10.8333L3.48336 10.8333C3.65853 11.316 3.97805 11.733 4.3985 12.0276C4.81894 12.3223 5.31993 12.4804 5.83336 12.4804C6.34679 12.4804 6.84777 12.3223 7.26822 12.0276C7.68867 11.733 8.00819 11.316 8.18336 10.8333ZM5.00003 10C5.00003 9.83519 5.0489 9.67407 5.14047 9.53703C5.23203 9.39999 5.36218 9.29318 5.51446 9.23011C5.66673 9.16704 5.83428 9.15053 5.99594 9.18269C6.15759 9.21484 6.30607 9.29421 6.42261 9.41075C6.53916 9.5273 6.61853 9.67578 6.65068 9.83743C6.68283 9.99908 6.66633 10.1666 6.60326 10.3189C6.54019 10.4712 6.43337 10.6013 6.29633 10.6929C6.15929 10.7845 5.99818 10.8333 5.83336 10.8333C5.61235 10.8333 5.40038 10.7455 5.2441 10.5893C5.08782 10.433 5.00003 10.221 5.00003 10ZM14.85 5.00001L17.5 5.00001C17.721 5.00001 17.933 4.91221 18.0893 4.75593C18.2456 4.59965 18.3334 4.38769 18.3334 4.16668C18.3334 3.94566 18.2456 3.7337 18.0893 3.57742C17.933 3.42114 17.721 3.33334 17.5 3.33334L14.85 3.33334C14.6749 2.85072 14.3553 2.43373 13.9349 2.13904C13.5144 1.84436 13.0135 1.68628 12.5 1.68628C11.9866 1.68628 11.4856 1.84436 11.0652 2.13904C10.6447 2.43373 10.3252 2.85072 10.15 3.33334L2.50003 3.33334C2.27901 3.33334 2.06705 3.42114 1.91077 3.57742C1.75449 3.7337 1.66669 3.94566 1.66669 4.16668C1.66669 4.38769 1.75449 4.59965 1.91077 4.75593C2.06705 4.91221 2.27901 5.00001 2.50003 5.00001L10.15 5.00001C10.3252 5.48264 10.6447 5.89963 11.0652 6.19431C11.4856 6.48899 11.9866 6.64707 12.5 6.64707C13.0135 6.64707 13.5144 6.48899 13.9349 6.19431C14.3553 5.89963 14.6749 5.48264 14.85 5.00001ZM11.6667 4.16668C11.6667 4.00186 11.7156 3.84074 11.8071 3.7037C11.8987 3.56666 12.0289 3.45985 12.1811 3.39678C12.3334 3.3337 12.5009 3.3172 12.6626 3.34936C12.8243 3.38151 12.9727 3.46088 13.0893 3.57742C13.2058 3.69396 13.2852 3.84245 13.3173 4.0041C13.3495 4.16575 13.333 4.33331 13.2699 4.48558C13.2069 4.63785 13.1 4.768 12.963 4.85957C12.826 4.95114 12.6648 5.00001 12.5 5.00001C12.279 5.00001 12.0671 4.91221 11.9108 4.75593C11.7545 4.59965 11.6667 4.38769 11.6667 4.16668Z"
          fill="currentColor"/>
</svg>
