<svg width="24" height="24" viewBox="0 0 24 24" fill="none" xmlns="http://www.w3.org/2000/svg">
    <path fill-rule="evenodd" clip-rule="evenodd" d="M6.43543 12.3208C5.92712 12.3208 5.45242 12.2515 5.0161 12.1141V20.4635H18.9872V12.1027C18.5538 12.2394 18.0821 12.3097 17.5773 12.3121C16.5406 12.3121 15.5553 11.9575 14.7733 11.3195C14.001 11.9508 13.0304 12.3061 12.0132 12.3142C10.9817 12.3078 10.0043 11.9534 9.22787 11.3221C8.4473 11.9609 7.46503 12.3178 6.43543 12.3208ZM2 7.92555C2.00148 9.20485 2.54958 10.3978 3.47754 11.2265V20.4635C3.47754 21.312 4.16757 22.002 5.01612 22.002H18.9873C19.8358 22.002 20.5258 21.312 20.5258 20.4635V11.2141C21.4529 10.3836 22.0003 9.18835 22 7.91408C22.0015 7.60757 21.8798 7.26425 20.6774 4.58958C20.3912 3.95308 20.12 3.34981 19.9453 2.937C19.7041 2.36774 19.1482 2 18.5292 2H5.51439C4.89911 2 4.3447 2.36456 4.10241 2.92781C3.93096 3.32596 3.66651 3.90405 3.38527 4.51883L3.35453 4.58603C2.12472 7.27233 2 7.61698 2 7.92555ZM3.53968 7.99747C3.56179 8.84815 3.95447 9.63485 4.60085 10.1626C4.67543 10.2013 4.74286 10.2519 4.80066 10.3118C4.88714 10.3708 4.97737 10.4255 5.07112 10.4755L5.07856 10.4796L5.0918 10.487C5.46743 10.6829 5.91856 10.7822 6.43318 10.7822C7.28585 10.7797 8.09007 10.4043 8.63774 9.75222C8.70982 9.66631 8.79983 9.59722 8.90145 9.54978C9.00306 9.50235 9.11383 9.47772 9.22597 9.47763C9.33804 9.47762 9.44951 9.5021 9.55112 9.54937C9.65272 9.59664 9.74277 9.66556 9.81495 9.75128C10.3589 10.397 11.1597 10.7704 12.012 10.7756C12.8466 10.7689 13.6419 10.3947 14.1835 9.74922C14.4754 9.40084 15.0689 9.40045 15.3622 9.74886C15.9088 10.4002 16.7149 10.7736 17.5735 10.7736C18.1051 10.7709 18.5708 10.6632 18.9543 10.453C19.055 10.398 19.152 10.3373 19.2449 10.2712C19.2781 10.2416 19.3139 10.2148 19.3519 10.1913C19.6244 9.97785 19.8575 9.71641 20.0389 9.41859C20.3033 8.98454 20.4488 8.48851 20.4606 7.9804C20.3468 7.6072 19.7049 6.1787 19.274 5.22046C18.9829 4.57288 18.7072 3.95893 18.5291 3.53858H5.51437C5.33407 3.95741 5.0516 4.57476 4.75334 5.22647L4.7498 5.2342C4.30997 6.19537 3.65769 7.62079 3.53968 7.99747ZM11.0371 19.31H12.9603V15.4636C12.9603 15.0388 12.6159 14.6943 12.191 14.6943H11.8064C11.3815 14.6943 11.0371 15.0388 11.0371 15.4636V19.31Z" fill="currentColor"/>
</svg>
